<svg width="14" height="12" viewBox="0 0 14 12" fill="none" xmlns="http://www.w3.org/2000/svg">
<path d="M10.3668 8.22179L10.3668 8.2218L10.3681 8.223L10.6156 8.44575L10.7871 8.66295L10.9145 8.89468L10.9605 9.00958L11.0356 9.20983L11.0671 9.31472L11.1029 9.57773L11.1148 9.73199V10.0082L11.0803 10.2608L10.9866 10.5657L10.8342 10.8822L10.662 11.1117L10.4136 11.3602L10.1862 11.5193L9.85676 11.6723L9.61106 11.7393L9.46736 11.7495L9.27712 11.7383L9.05635 11.6942L8.81694 11.5916L8.55925 11.4443L8.26259 11.2509L8.25062 11.243L8.23783 11.2367L7.86919 11.0523L7.86921 11.0523L7.86525 11.0504L7.56244 10.9056L7.53581 10.8929L7.50696 10.8867L7.32264 10.8472L7.32272 10.8468L7.30924 10.8447L7.0591 10.8052L7.03194 10.8009L7.00451 10.8026L6.79386 10.8158L6.76905 10.8173L6.74504 10.8237L6.54755 10.8764L6.52675 10.8819L6.5072 10.891L6.33832 10.9689L6.12996 11.0601L6.11528 11.0665L6.10154 11.0747L5.90501 11.1926L5.68474 11.3222L5.45046 11.4524L5.43554 11.4607L5.42188 11.4709L5.33673 11.5348L5.13437 11.6306L4.78425 11.7097L4.42016 11.6983L4.1929 11.6442L3.86454 11.4917L3.58513 11.3055L3.37666 11.097L3.21709 10.8918L3.06556 10.5888L2.95913 10.2577L2.92604 10.037L2.93797 9.67911L2.98704 9.34788L3.07018 8.99158L3.20623 8.71948L3.37362 8.48513L3.42792 8.43988L3.42812 8.44013L3.43744 8.43152L4.29322 7.64158L4.30789 7.62804L4.32022 7.61234L4.60987 7.2437L4.60992 7.24373L4.61329 7.23924L4.85027 6.92326L4.86283 6.90652L4.87243 6.88792L5.08308 6.47979L5.08315 6.47982L5.0858 6.47435L5.30622 6.02056L5.46973 5.73127L5.62237 5.49643L5.86408 5.25472L6.24021 4.99613L6.6189 4.85843L6.87835 4.82458H7.16186L7.42307 4.85866L7.69173 4.9521L7.89457 5.04225L8.05975 5.16339L8.19044 5.2822L8.31917 5.41092L8.51172 5.66365L8.68508 5.94845L8.82384 6.21336L8.94019 6.45898L8.93991 6.45911L8.94575 6.47001L9.14324 6.83865L9.14892 6.84926L9.15559 6.85927L9.33991 7.13575L9.33959 7.13597L9.34793 7.14708L9.54541 7.41039L9.55211 7.41933L9.55959 7.42764L9.79657 7.69095L9.80323 7.69835L9.81046 7.7052L10.0606 7.94218L10.0606 7.94221L10.064 7.94531L10.3668 8.22179Z" stroke="#DAD6D3" stroke-width="0.5"/>
<path d="M9.03312 0.403552C9.32042 0.433943 9.58823 0.629843 9.77819 0.972502C9.96771 1.31435 10.0657 1.78263 10.0116 2.29458C9.95742 2.80653 9.7636 3.24394 9.50675 3.53857C9.2493 3.8339 8.94643 3.96944 8.65913 3.93904C8.37183 3.90865 8.10402 3.71275 7.91405 3.37009C7.72454 3.02825 7.62652 2.55997 7.68067 2.04801C7.73483 1.53606 7.92865 1.09866 8.1855 0.804024C8.44295 0.508694 8.74582 0.373161 9.03312 0.403552Z" stroke="#DAD6D3" stroke-width="0.5"/>
<path d="M6.35532 2.0427C6.40948 2.55465 6.31146 3.02293 6.12194 3.36478C5.93197 3.70744 5.66417 3.90334 5.37687 3.93373C5.08957 3.96412 4.7867 3.82858 4.52925 3.53325C4.2724 3.23862 4.07858 2.80122 4.02442 2.28926C3.97027 1.77731 4.06829 1.30903 4.2578 0.967185C4.44777 0.624526 4.71558 0.428627 5.00288 0.398236C5.29018 0.367845 5.59304 0.503377 5.8505 0.798707C6.10734 1.09334 6.30117 1.53075 6.35532 2.0427Z" stroke="#DAD6D3" stroke-width="0.5"/>
<path d="M11.8654 3.5902C12.1481 3.65317 12.3921 3.87752 12.5422 4.23697C12.692 4.59569 12.7368 5.06857 12.6257 5.56716C12.5147 6.06575 12.2734 6.47492 11.9856 6.73617C11.6971 6.99795 11.381 7.09754 11.0983 7.03458C10.8156 6.97161 10.5716 6.74726 10.4215 6.38781C10.2717 6.0291 10.2269 5.55621 10.338 5.05762C10.449 4.55903 10.6903 4.14986 10.9781 3.88862C11.2666 3.62683 11.5827 3.52724 11.8654 3.5902Z" stroke="#DAD6D3" stroke-width="0.5"/>
<path d="M3.70044 5.05723C3.81149 5.55582 3.76668 6.0287 3.61691 6.38742C3.46683 6.74687 3.22282 6.97122 2.94012 7.03418C2.65742 7.09715 2.34126 6.99756 2.05282 6.73577C1.76497 6.47453 1.52371 6.06536 1.41266 5.56677C1.30161 5.06818 1.34642 4.59529 1.49619 4.23658C1.64627 3.87713 1.89028 3.65278 2.17298 3.58981C2.45568 3.52685 2.77184 3.62644 3.06028 3.88822C3.34813 4.14947 3.58939 4.55864 3.70044 5.05723Z" stroke="#DAD6D3" stroke-width="0.5"/>
</svg>
