<svg width="14" height="12" viewBox="0 0 14 12" fill="none" xmlns="http://www.w3.org/2000/svg">
<path d="M11.1583 9.26158L11.1188 9.12993L11.0398 8.91928L10.9872 8.78762L10.8423 8.5243L10.6449 8.27415L10.3815 8.03717L10.0787 7.76069L9.82859 7.52371L9.5916 7.26039L9.39412 6.99708L9.2098 6.7206L9.01231 6.35196L8.89382 6.10181L8.749 5.82533L8.56468 5.52252L8.35402 5.24604L8.2092 5.10121L8.06438 4.96956L7.86689 4.82473L7.62991 4.71941L7.3271 4.61408L7.02429 4.57458H6.70831L6.4055 4.61408L5.97103 4.77207L5.54972 5.06172L5.27324 5.3382L5.10209 5.60151L4.93093 5.90432L4.70712 6.36512L4.49647 6.77326L4.25948 7.08924L3.96984 7.45788L3.11406 8.24782L3.03507 8.31365L2.83758 8.59013L2.6796 8.90611L2.58744 9.30108L2.53477 9.65656L2.52161 10.0515L2.5611 10.3148L2.6796 10.6835L2.85075 11.0258L3.03507 11.2628L3.27205 11.4998L3.58803 11.7104L3.95667 11.8816L4.23315 11.9474L4.65445 11.9606L5.06259 11.8684L5.31274 11.7499L5.41807 11.6709L5.65505 11.5393L5.87887 11.4076L6.07635 11.2891L6.287 11.1969L6.45816 11.118L6.65565 11.0653L6.8663 11.0521L7.11645 11.0916L7.30077 11.1311L7.60358 11.2759L7.97222 11.4603L8.27503 11.6577L8.55151 11.8157L8.82799 11.9342L9.09131 11.9869L9.31512 12.0001L9.49944 11.9869L9.78909 11.9079L10.1577 11.7367L10.421 11.5524L10.6975 11.2759L10.895 11.0126L11.0662 10.6572L11.1715 10.3148L11.211 10.0252V9.72239L11.1978 9.55123L11.1583 9.26158Z" fill="#B5B0AD"/>
<path d="M10.1064 2.32088C10.2242 1.20727 9.68659 0.23754 8.90561 0.154927C8.12464 0.0723141 7.39604 0.908103 7.27824 2.02171C7.16044 3.13533 7.69805 4.10506 8.47902 4.18767C9.25999 4.27028 9.98859 3.43449 10.1064 2.32088Z" fill="#B5B0AD"/>
<path d="M5.24936 4.18235C6.03033 4.09974 6.56794 3.13001 6.45014 2.0164C6.33234 0.902787 5.60374 0.0669979 4.82277 0.149611C4.0418 0.232223 3.50419 1.20195 3.62199 2.31556C3.73979 3.42917 4.46839 4.26496 5.24936 4.18235Z" fill="#B5B0AD"/>
<path d="M12.7159 5.62151C12.9578 4.5356 12.5325 3.5169 11.766 3.34618C10.9994 3.17546 10.182 3.91736 9.94012 5.00327C9.69826 6.08918 10.1236 7.10788 10.8901 7.2786C11.6566 7.44933 12.4741 6.70742 12.7159 5.62151Z" fill="#B5B0AD"/>
<path d="M2.84066 7.27821C3.60719 7.10749 4.03251 6.08879 3.79066 5.00288C3.5488 3.91697 2.73134 3.17506 1.96482 3.34579C1.1983 3.51651 0.772968 4.53521 1.01483 5.62112C1.25668 6.70703 2.07414 7.44893 2.84066 7.27821Z" fill="#B5B0AD"/>
</svg>
